<svg width="51" height="50" viewBox="0 0 51 50" fill="none" xmlns="http://www.w3.org/2000/svg">
<path d="M25.658 16.6628C21.0645 16.6628 17.3158 20.409 17.3158 24.9995C17.3158 29.59 21.0645 33.3363 25.658 33.3363C30.2516 33.3363 34.0002 29.59 34.0002 24.9995C34.0002 20.409 30.2516 16.6628 25.658 16.6628ZM50.6785 24.9995C50.6785 21.5473 50.7098 18.1263 50.5158 14.6803C50.3218 10.6776 49.408 7.12529 46.4792 4.19837C43.5441 1.26519 39.9956 0.358344 35.9904 0.164467C32.5358 -0.0294104 29.1126 0.00186025 25.6643 0.00186025C22.2097 0.00186025 18.7865 -0.0294104 15.3382 0.164467C11.3329 0.358344 7.7782 1.27144 4.84934 4.19837C1.91422 7.13154 1.00677 10.6776 0.812769 14.6803C0.618764 18.1325 0.650055 21.5535 0.650055 24.9995C0.650055 28.4455 0.618764 31.8728 0.812769 35.3188C1.00677 39.3214 1.92048 42.8738 4.84934 45.8007C7.78445 48.7339 11.3329 49.6407 15.3382 49.8346C18.7927 50.0285 22.216 49.9972 25.6643 49.9972C29.1188 49.9972 32.5421 50.0285 35.9904 49.8346C39.9956 49.6407 43.5503 48.7276 46.4792 45.8007C49.4143 42.8675 50.3218 39.3214 50.5158 35.3188C50.716 31.8728 50.6785 28.4518 50.6785 24.9995ZM25.658 37.8267C18.5549 37.8267 12.8223 32.0979 12.8223 24.9995C12.8223 17.9011 18.5549 12.1724 25.658 12.1724C32.7611 12.1724 38.4937 17.9011 38.4937 24.9995C38.4937 32.0979 32.7611 37.8267 25.658 37.8267ZM39.0194 14.6427C37.3609 14.6427 36.0217 13.3043 36.0217 11.647C36.0217 9.98967 37.3609 8.65129 39.0194 8.65129C40.6778 8.65129 42.0171 9.98967 42.0171 11.647C42.0176 12.0406 41.9404 12.4303 41.7899 12.794C41.6394 13.1577 41.4186 13.4881 41.1402 13.7664C40.8617 14.0447 40.531 14.2653 40.1671 14.4157C39.8032 14.5661 39.4132 14.6432 39.0194 14.6427Z" fill="white"/>
</svg>
