<svg width="51" height="41" viewBox="0 0 51 41" fill="none" xmlns="http://www.w3.org/2000/svg">
<path d="M50.8202 4.82517C48.9802 5.61834 46.978 6.18919 44.9155 6.41151C47.0568 5.14025 48.6603 3.13186 49.4252 0.763154C47.4159 1.95766 45.2147 2.79526 42.9193 3.23882C41.9599 2.21386 40.7996 1.39733 39.5106 0.840113C38.2216 0.282894 36.8316 -0.00307525 35.4272 2.49393e-05C29.7451 2.49393e-05 25.1753 4.60284 25.1753 10.2512C25.1753 11.0444 25.2715 11.8375 25.4278 12.6007C16.9196 12.156 9.33139 8.094 4.2866 1.8748C3.36738 3.44381 2.88568 5.23032 2.89161 7.04846C2.89161 10.6057 4.70149 13.7424 7.46139 15.5871C5.83494 15.5231 4.24657 15.0763 2.82547 14.2832V14.4094C2.82547 19.3907 6.34901 23.5188 11.0451 24.4682C10.1633 24.6971 9.25628 24.8142 8.34528 24.8168C7.67786 24.8168 7.0465 24.7507 6.40914 24.6605C7.70792 28.7225 11.49 31.6729 15.9937 31.769C12.4701 34.5271 8.05667 36.1495 3.26441 36.1495C2.40457 36.1495 1.61087 36.1195 0.787109 36.0233C5.33284 38.9377 10.7264 40.6201 16.5348 40.6201C35.3912 40.6201 45.7092 25.009 45.7092 11.459C45.7092 11.0143 45.7092 10.5697 45.6792 10.125C47.6754 8.66485 49.4252 6.85617 50.8202 4.82517Z" fill="white"/>
</svg>
