<svg width="61" height="43" viewBox="0 0 61 43" fill="none" xmlns="http://www.w3.org/2000/svg">
<path d="M59.5009 6.5692C59.1591 5.29713 58.489 4.13708 57.5576 3.20515C56.6262 2.27322 55.4663 1.60209 54.1938 1.25893C49.5099 2.55448e-07 30.7341 0 30.7341 0C30.7341 0 11.9583 -2.55448e-07 7.27437 1.25223C6.00135 1.59428 4.84079 2.26504 3.90924 3.19714C2.9777 4.12925 2.30796 5.28988 1.96729 6.5625C0.714233 11.25 0.714233 21.0268 0.714233 21.0268C0.714233 21.0268 0.714233 30.8036 1.96729 35.4844C2.65748 38.0692 4.69454 40.1049 7.27437 40.7946C11.9583 42.0536 30.7341 42.0536 30.7341 42.0536C30.7341 42.0536 49.5099 42.0536 54.1938 40.7946C56.7803 40.1049 58.8107 38.0692 59.5009 35.4844C60.7539 30.8036 60.7539 21.0268 60.7539 21.0268C60.7539 21.0268 60.7539 11.25 59.5009 6.5692ZM24.7703 30V12.0536L40.3163 20.9598L24.7703 30Z" fill="white"/>
</svg>
